<svg id="Layer_1" data-name="Layer 1" xmlns="http://www.w3.org/2000/svg" xmlns:xlink="http://www.w3.org/1999/xlink" viewBox="0 0 147.29 171.58"><defs><style>.cls-1,.cls-18,.cls-19,.cls-20{fill:none;}.cls-2{clip-path:url(#clip-path);}.cls-3{fill:#fdd7bd;}.cls-4{fill:#fbb88a;}.cls-5{fill:#f89a59;}.cls-13,.cls-6,.cls-7{fill:#f2f3f2;}.cls-6{stroke:#231f20;}.cls-10,.cls-11,.cls-12,.cls-13,.cls-14,.cls-15,.cls-16,.cls-18,.cls-19,.cls-20,.cls-6,.cls-7,.cls-9{stroke-miterlimit:10;}.cls-18,.cls-20,.cls-6,.cls-7{stroke-width:3px;}.cls-6,.cls-7{opacity:0.75;}.cls-18,.cls-20,.cls-7{stroke:#252525;}.cls-8{clip-path:url(#clip-path-2);}.cls-9{fill:#f9eecc;stroke:#3b2e1b;}.cls-10{fill:#dc3033;stroke:#a41e22;}.cls-11{fill:#104e87;stroke:#1f2758;}.cls-12,.cls-15{fill:#ed8524;}.cls-12,.cls-14{stroke:#4c4c4b;}.cls-13,.cls-15{stroke:#40413f;}.cls-16{fill:#114e87;stroke:#1f2857;}.cls-17{fill:#252525;}.cls-19{stroke:#f58020;stroke-width:2px;}.cls-20{stroke-linecap:round;}.cls-21{fill:#f58020;}</style><clipPath id="clip-path" transform="translate(-181.47 -206.11)"><polygon class="cls-1" points="181.47 248.63 181.47 333.67 255.12 376.19 328.76 333.67 328.76 248.63 255.12 206.11 181.47 248.63"/></clipPath><clipPath id="clip-path-2" transform="translate(-181.47 -206.11)"><rect class="cls-1" x="212.6" y="262.81" width="85.04" height="113.39" rx="12" ry="12"/></clipPath></defs><title>granolarr_hex</title><g class="cls-2"><polygon class="cls-3" points="0 42.52 0 127.56 0.11 127.63 73.64 85.17 73.64 0.13 73.53 0.07 0 42.52"/><polygon class="cls-4" points="147.29 42.52 147.29 127.56 147.18 127.63 73.65 85.17 73.65 0.13 73.76 0.07 147.29 42.52"/><polygon class="cls-5" points="147.29 127.55 147.29 127.56 73.65 170.08 0.02 127.57 0.02 127.56 73.67 85.04 147.29 127.55"/><polygon class="cls-5" points="147.29 127.55 147.29 127.56 73.65 170.08 0.02 127.57 0.02 127.56 73.67 85.04 147.29 127.55"/><rect class="cls-6" x="31.13" y="56.69" width="85.04" height="113.39" rx="12" ry="12"/><rect class="cls-7" x="39.63" y="46.49" width="68.03" height="10.2" rx="5.1" ry="5.1"/><rect class="cls-7" x="39.63" y="36.28" width="68.03" height="10.2" rx="5.1" ry="5.1"/><g class="cls-8"><polygon class="cls-9" points="61.37 97.79 61.37 103.46 66.28 106.3 71.19 103.46 71.19 97.79 66.28 94.96 61.37 97.79"/><polygon class="cls-9" points="103.11 102.04 103.11 107.71 108.01 110.55 112.92 107.71 112.92 102.04 108.01 99.21 103.11 102.04"/><polygon class="cls-9" points="63.83 102.04 63.83 107.71 68.74 110.55 73.65 107.71 73.65 102.04 68.74 99.21 63.83 102.04"/><polygon class="cls-9" points="73.65 102.04 73.65 107.71 78.56 110.55 83.47 107.71 83.47 102.04 78.56 99.21 73.65 102.04"/><polygon class="cls-9" points="83.47 102.04 83.47 107.71 88.38 110.55 93.28 107.71 93.28 102.04 88.38 99.21 83.47 102.04"/><polygon class="cls-9" points="93.28 102.04 93.28 107.71 98.19 110.55 103.11 107.71 103.11 102.04 98.19 99.21 93.28 102.04"/><polygon class="cls-9" points="44.19 102.04 44.19 107.71 49.1 110.55 54.01 107.71 54.01 102.04 49.1 99.21 44.19 102.04"/><polygon class="cls-9" points="54.01 102.04 54.01 107.71 58.92 110.55 63.83 107.71 63.83 102.04 58.92 99.21 54.01 102.04"/><polygon class="cls-9" points="34.37 102.04 34.37 107.71 39.28 110.55 44.19 107.71 44.19 102.04 39.28 99.21 34.37 102.04"/><polygon class="cls-9" points="68.74 93.54 68.74 99.21 73.65 102.04 78.56 99.21 78.56 93.54 73.65 90.7 68.74 93.54"/><polygon class="cls-9" points="78.56 93.54 78.56 99.21 83.47 102.04 88.38 99.21 88.38 93.54 83.47 90.7 78.56 93.54"/><polygon class="cls-9" points="88.38 93.54 88.38 99.21 93.28 102.04 98.19 99.21 98.19 93.54 93.28 90.7 88.38 93.54"/><polygon class="cls-9" points="95.74 97.79 95.74 103.46 100.65 106.3 105.56 103.46 105.56 97.79 100.65 94.96 95.74 97.79"/><polygon class="cls-10" points="98.19 153.07 98.19 158.74 103.11 161.57 108.02 158.74 108.02 153.07 103.11 150.24 98.19 153.07"/><polygon class="cls-11" points="68.74 153.07 68.74 158.74 73.65 161.57 78.56 158.74 78.56 153.07 73.65 150.24 68.74 153.07"/><polygon class="cls-12" points="39.28 153.07 39.28 158.74 44.19 161.57 49.1 158.74 49.1 153.07 44.19 150.24 39.28 153.07"/><polygon class="cls-10" points="54.01 144.56 54.01 150.24 58.92 153.07 63.83 150.24 63.83 144.56 58.92 141.73 54.01 144.56"/><polygon class="cls-13" points="83.47 144.56 83.47 150.24 88.38 153.07 93.28 150.24 93.28 144.56 88.38 141.73 83.47 144.56"/><polygon class="cls-14" points="83.47 127.56 83.47 133.23 88.38 136.06 93.28 133.23 93.28 127.56 88.38 124.72 83.47 127.56"/><polygon class="cls-11" points="34.37 127.56 34.37 133.23 39.28 136.06 44.19 133.23 44.19 127.56 39.28 124.72 34.37 127.56"/><polygon class="cls-10" points="68.74 119.05 68.74 124.72 73.65 127.56 78.56 124.72 78.56 119.05 73.65 116.22 68.74 119.05"/><polygon class="cls-13" points="49.1 119.05 49.1 124.72 54.01 127.56 58.92 124.72 58.92 119.05 54.01 116.22 49.1 119.05"/><polygon class="cls-15" points="93.28 110.55 93.28 116.22 98.19 119.05 103.11 116.22 103.11 110.55 98.19 107.71 93.28 110.55"/><polygon class="cls-14" points="34.37 110.55 34.37 116.22 39.28 119.05 44.19 116.22 44.19 110.55 39.28 107.71 34.37 110.55"/><polygon class="cls-9" points="103.11 161.57 103.11 167.24 108.02 170.08 112.92 167.24 112.92 161.57 108.02 158.74 103.11 161.57"/><polygon class="cls-9" points="93.28 161.57 93.28 167.24 98.19 170.08 103.11 167.24 103.11 161.57 98.19 158.74 93.28 161.57"/><polygon class="cls-9" points="54.01 161.57 54.01 167.24 58.92 170.08 63.83 167.24 63.83 161.57 58.92 158.74 54.01 161.57"/><polygon class="cls-9" points="63.83 161.57 63.83 167.24 68.74 170.08 73.65 167.24 73.65 161.57 68.74 158.74 63.83 161.57"/><polygon class="cls-9" points="73.65 161.57 73.65 167.24 78.56 170.08 83.47 167.24 83.47 161.57 78.56 158.74 73.65 161.57"/><polygon class="cls-9" points="83.47 161.57 83.47 167.24 88.38 170.08 93.28 167.24 93.28 161.57 88.38 158.74 83.47 161.57"/><polygon class="cls-9" points="34.37 161.57 34.37 167.24 39.28 170.08 44.19 167.24 44.19 161.57 39.28 158.74 34.37 161.57"/><polygon class="cls-9" points="44.19 161.57 44.19 167.24 49.1 170.08 54.01 167.24 54.01 161.57 49.1 158.74 44.19 161.57"/><polygon class="cls-9" points="108.02 153.07 108.02 158.74 112.92 161.57 117.83 158.74 117.83 153.07 112.92 150.24 108.02 153.07"/><polygon class="cls-9" points="58.92 153.07 58.92 158.74 63.83 161.57 68.74 158.74 68.74 153.07 63.83 150.24 58.92 153.07"/><polygon class="cls-9" points="78.56 153.07 78.56 158.74 83.47 161.57 88.38 158.74 88.38 153.07 83.47 150.24 78.56 153.07"/><polygon class="cls-9" points="88.38 153.07 88.38 158.74 93.28 161.57 98.19 158.74 98.19 153.07 93.28 150.24 88.38 153.07"/><polygon class="cls-9" points="49.1 153.07 49.1 158.74 54.01 161.57 58.92 158.74 58.92 153.07 54.01 150.24 49.1 153.07"/><polygon class="cls-9" points="29.46 153.07 29.46 158.74 34.37 161.57 39.28 158.74 39.28 153.07 34.37 150.24 29.46 153.07"/><polygon class="cls-9" points="103.11 144.57 103.11 150.24 108.02 153.07 112.92 150.24 112.92 144.57 108.02 141.73 103.11 144.57"/><polygon class="cls-9" points="93.28 144.56 93.28 150.24 98.19 153.07 103.11 150.24 103.11 144.56 98.19 141.73 93.28 144.56"/><polygon class="cls-9" points="63.83 144.56 63.83 150.24 68.74 153.07 73.65 150.24 73.65 144.56 68.74 141.73 63.83 144.56"/><polygon class="cls-9" points="73.65 144.56 73.65 150.24 78.56 153.07 83.47 150.24 83.47 144.56 78.56 141.73 73.65 144.56"/><polygon class="cls-9" points="34.37 144.56 34.37 150.24 39.28 153.07 44.19 150.24 44.19 144.56 39.28 141.73 34.37 144.56"/><polygon class="cls-9" points="44.19 144.56 44.19 150.24 49.1 153.07 54.01 150.24 54.01 144.56 49.1 141.73 44.19 144.56"/><polygon class="cls-9" points="112.92 144.56 112.92 150.24 117.83 153.07 122.74 150.24 122.74 144.56 117.83 141.73 112.92 144.56"/><polygon class="cls-9" points="24.55 144.57 24.55 150.24 29.46 153.07 34.37 150.24 34.37 144.57 29.46 141.73 24.55 144.57"/><polygon class="cls-9" points="108.02 136.06 108.02 141.73 112.92 144.57 117.83 141.73 117.83 136.06 112.92 133.23 108.02 136.06"/><polygon class="cls-16" points="98.19 136.06 98.19 141.73 103.11 144.56 108.02 141.73 108.02 136.06 103.11 133.23 98.19 136.06"/><polygon class="cls-9" points="58.92 136.06 58.92 141.73 63.83 144.56 68.74 141.73 68.74 136.06 63.83 133.23 58.92 136.06"/><polygon class="cls-9" points="68.74 136.06 68.74 141.73 73.65 144.56 78.56 141.73 78.56 136.06 73.65 133.23 68.74 136.06"/><polygon class="cls-9" points="78.56 136.06 78.56 141.73 83.47 144.56 88.38 141.73 88.38 136.06 83.47 133.23 78.56 136.06"/><polygon class="cls-9" points="88.38 136.06 88.38 141.73 93.28 144.56 98.19 141.73 98.19 136.06 93.28 133.23 88.38 136.06"/><polygon class="cls-9" points="39.28 136.06 39.28 141.73 44.19 144.56 49.1 141.73 49.1 136.06 44.19 133.23 39.28 136.06"/><polygon class="cls-9" points="49.1 136.06 49.1 141.73 54.01 144.56 58.92 141.73 58.92 136.06 54.01 133.23 49.1 136.06"/><polygon class="cls-9" points="29.46 136.06 29.46 141.73 34.37 144.57 39.28 141.73 39.28 136.06 34.37 133.23 29.46 136.06"/><polygon class="cls-9" points="93.28 127.56 93.28 133.23 98.19 136.06 103.11 133.23 103.11 127.56 98.19 124.72 93.28 127.56"/><polygon class="cls-9" points="54.01 127.56 54.01 133.23 58.92 136.06 63.83 133.23 63.83 127.56 58.92 124.72 54.01 127.56"/><polygon class="cls-9" points="63.83 127.56 63.83 133.23 68.74 136.06 73.65 133.23 73.65 127.56 68.74 124.72 63.83 127.56"/><polygon class="cls-9" points="73.65 127.56 73.65 133.23 78.56 136.06 83.47 133.23 83.47 127.56 78.56 124.72 73.65 127.56"/><polygon class="cls-9" points="44.19 127.56 44.19 133.23 49.1 136.06 54.01 133.23 54.01 127.56 49.1 124.72 44.19 127.56"/><polygon class="cls-9" points="112.92 127.56 112.92 133.23 117.83 136.06 122.74 133.23 122.74 127.56 117.83 124.72 112.92 127.56"/><polygon class="cls-9" points="24.55 127.56 24.55 133.23 29.46 136.06 34.37 133.23 34.37 127.56 29.46 124.72 24.55 127.56"/><polygon class="cls-9" points="108.02 119.05 108.02 124.72 112.92 127.56 117.83 124.72 117.83 119.05 112.92 116.22 108.02 119.05"/><polygon class="cls-9" points="98.19 119.05 98.19 124.72 103.11 127.56 108.02 124.72 108.02 119.05 103.11 116.22 98.19 119.05"/><polygon class="cls-9" points="58.92 119.05 58.92 124.72 63.83 127.56 68.74 124.72 68.74 119.05 63.83 116.22 58.92 119.05"/><polygon class="cls-9" points="78.56 119.05 78.56 124.72 83.47 127.56 88.38 124.72 88.38 119.05 83.47 116.22 78.56 119.05"/><polygon class="cls-9" points="88.38 119.05 88.38 124.72 93.28 127.56 98.19 124.72 98.19 119.05 93.28 116.22 88.38 119.05"/><polygon class="cls-9" points="39.28 119.05 39.28 124.72 44.19 127.56 49.1 124.72 49.1 119.05 44.19 116.22 39.28 119.05"/><polygon class="cls-9" points="29.46 119.05 29.46 124.72 34.37 127.56 39.28 124.72 39.28 119.05 34.37 116.22 29.46 119.05"/><polygon class="cls-9" points="103.11 110.55 103.11 116.22 108.02 119.05 112.92 116.22 112.92 110.55 108.02 107.71 103.11 110.55"/><polygon class="cls-9" points="54.01 110.55 54.01 116.22 58.92 119.05 63.83 116.22 63.83 110.55 58.92 107.71 54.01 110.55"/><polygon class="cls-9" points="63.83 110.55 63.83 116.22 68.74 119.05 73.65 116.22 73.65 110.55 68.74 107.71 63.83 110.55"/><polygon class="cls-9" points="73.65 110.55 73.65 116.22 78.56 119.05 83.47 116.22 83.47 110.55 78.56 107.71 73.65 110.55"/><polygon class="cls-9" points="83.47 110.55 83.47 116.22 88.38 119.05 93.28 116.22 93.28 110.55 88.38 107.71 83.47 110.55"/><polygon class="cls-9" points="44.19 110.55 44.19 116.22 49.1 119.05 54.01 116.22 54.01 110.55 49.1 107.71 44.19 110.55"/><polygon class="cls-9" points="112.92 110.55 112.92 116.22 117.83 119.05 122.74 116.22 122.74 110.55 117.83 107.71 112.92 110.55"/><polygon class="cls-9" points="24.55 110.55 24.55 116.22 29.46 119.05 34.37 116.22 34.37 110.55 29.46 107.71 24.55 110.55"/><polygon class="cls-9" points="108.02 102.04 108.02 107.71 112.92 110.55 117.83 107.71 117.83 102.04 112.92 99.21 108.02 102.04"/><polygon class="cls-9" points="98.19 102.04 98.19 107.71 103.11 110.55 108.02 107.71 108.02 102.04 103.11 99.21 98.19 102.04"/><polygon class="cls-9" points="58.92 102.04 58.92 107.71 63.83 110.55 68.74 107.71 68.74 102.04 63.83 99.21 58.92 102.04"/><polygon class="cls-9" points="68.74 102.04 68.74 107.71 73.65 110.55 78.56 107.71 78.56 102.04 73.65 99.21 68.74 102.04"/><polygon class="cls-9" points="78.56 102.04 78.56 107.71 83.47 110.55 88.38 107.71 88.38 102.04 83.47 99.21 78.56 102.04"/><polygon class="cls-9" points="88.38 102.04 88.38 107.71 93.28 110.55 98.19 107.71 98.19 102.04 93.28 99.21 88.38 102.04"/><polygon class="cls-9" points="39.28 102.04 39.28 107.71 44.19 110.55 49.1 107.71 49.1 102.04 44.19 99.21 39.28 102.04"/><polygon class="cls-9" points="49.1 102.04 49.1 107.71 54.01 110.55 58.92 107.71 58.92 102.04 54.01 99.21 49.1 102.04"/><polygon class="cls-9" points="29.46 102.04 29.46 107.71 34.37 110.55 39.28 107.71 39.28 102.04 34.37 99.21 29.46 102.04"/><polygon class="cls-9" points="103.11 127.56 103.11 133.23 108.02 136.06 112.92 133.23 112.92 127.56 108.02 124.72 103.11 127.56"/><polygon class="cls-9" points="63.83 93.54 63.83 99.21 68.74 102.04 73.65 99.21 73.65 93.54 68.74 90.7 63.83 93.54"/><polygon class="cls-9" points="73.65 93.54 73.65 99.21 78.56 102.04 83.47 99.21 83.47 93.54 78.56 90.7 73.65 93.54"/><polygon class="cls-9" points="83.47 93.54 83.47 99.21 88.38 102.04 93.28 99.21 93.28 93.54 88.38 90.7 83.47 93.54"/><polygon class="cls-9" points="93.28 93.54 93.28 99.21 98.19 102.04 103.1 99.21 103.1 93.54 98.19 90.7 93.28 93.54"/></g><path class="cls-17" d="M219.92,290.77V288.6l4.36.08h.46v-1.07l-4.06-.07a2,2,0,0,1-1.44-.62,2,2,0,0,1-.61-1.44v-4.06a2,2,0,0,1,.61-1.44,2,2,0,0,1,1.44-.63l4.17-.07a1.85,1.85,0,0,1,1.43.6,2,2,0,0,1,.6,1.47v7.5a2,2,0,0,1-.6,1.47,1.87,1.87,0,0,1-1.43.58Zm1.32-5.37,3,0h.46v-3.93h-.46l-3,0h-.46v3.87Z" transform="translate(-181.47 -206.11)"/><path class="cls-17" d="M228.14,287.66v-6.31a2.08,2.08,0,0,1,.6-1.49,2,2,0,0,1,1.44-.65l4.48,0v2.26l-3.92,0h-.46v6.24Z" transform="translate(-181.47 -206.11)"/><path class="cls-17" d="M237.53,287.76a1.87,1.87,0,0,1-1.43-.65,2.15,2.15,0,0,1-.6-1.52V282.3h6.09v-.9h-.46l-5.63,0v-2.27l6.21-.06a1.87,1.87,0,0,1,1.43.64,2.17,2.17,0,0,1,.6,1.53v6.54Zm.58-2.28,3.48,0v-1.2h-4v1.19Z" transform="translate(-181.47 -206.11)"/><path class="cls-17" d="M245,287.81v-8.74l6.2,0a1.83,1.83,0,0,1,1.43.65,2.19,2.19,0,0,1,.6,1.54v6.59h-2.14v-6.46h-3.95v6.45Z" transform="translate(-181.47 -206.11)"/><path class="cls-17" d="M256.56,287.83a1.86,1.86,0,0,1-1.43-.65,2.19,2.19,0,0,1-.6-1.54v-4.4a2.19,2.19,0,0,1,.6-1.54,1.87,1.87,0,0,1,1.43-.66h4.17a1.88,1.88,0,0,1,1.44.66,2.23,2.23,0,0,1,.59,1.54v4.38a2.23,2.23,0,0,1-.59,1.54,1.88,1.88,0,0,1-1.44.66Zm.57-2.32h3.49v-4.14h-3.95v4.15Z" transform="translate(-181.47 -206.11)"/><path class="cls-17" d="M266,287.81a1.87,1.87,0,0,1-1.42-.64,2.18,2.18,0,0,1-.61-1.54v-9.45l2.16,0v9.3h1.64v2.3Z" transform="translate(-181.47 -206.11)"/><path class="cls-17" d="M270.56,287.78a1.86,1.86,0,0,1-1.43-.64,2.13,2.13,0,0,1-.6-1.52v-3.33h6.09v-.89h-.46l-5.63,0v-2.3l6.2.05a2,2,0,0,1,1.44.65,2.15,2.15,0,0,1,.59,1.52v6.42Zm.58-2.29h3.48v-1.19h-3.95v1.2Z" transform="translate(-181.47 -206.11)"/><path class="cls-17" d="M278.18,287.71v-6.39a2.1,2.1,0,0,1,.6-1.5,1.86,1.86,0,0,1,1.44-.61l4.48.06v2.21l-3.92,0h-.46v6.24Z" transform="translate(-181.47 -206.11)"/><path class="cls-17" d="M285.54,287.62v-6.25a2,2,0,0,1,.6-1.46,1.92,1.92,0,0,1,1.44-.59l4.48.08v2.14l-3.92,0h-.46v6.09Z" transform="translate(-181.47 -206.11)"/><rect class="cls-18" x="31.13" y="56.69" width="85.04" height="113.39" rx="12" ry="12"/><rect class="cls-18" x="39.63" y="46.49" width="68.03" height="10.2" rx="5.1" ry="5.1"/><rect class="cls-18" x="39.63" y="36.28" width="68.03" height="10.2" rx="5.1" ry="5.1"/><line class="cls-19" x1="42.47" y1="46.49" x2="104.83" y2="46.49"/><line class="cls-20" x1="42.07" y1="46.49" x2="42.78" y2="46.49"/><line class="cls-20" x1="104.52" y1="46.49" x2="105.22" y2="46.49"/></g><path class="cls-21" d="M255.12,213l67.64,39.06v78.11l-67.64,39.05-67.65-39.05V252.1L255.12,213m0-6.93-73.65,42.52v85l73.65,42.52,73.64-42.52v-85l-73.64-42.52Z" transform="translate(-181.47 -206.11)"/></svg>